<?xml version="1.0" encoding="utf-8"?>
<!-- Generator: Adobe Illustrator 19.2.0, SVG Export Plug-In . SVG Version: 6.00 Build 0)  -->
<svg version="1.1"
	 id="svg2" inkscape:version="0.91 r13725" sodipodi:docname="logo.svg" xmlns:cc="http://creativecommons.org/ns#" xmlns:dc="http://purl.org/dc/elements/1.1/" xmlns:inkscape="http://www.inkscape.org/namespaces/inkscape" xmlns:rdf="http://www.w3.org/1999/02/22-rdf-syntax-ns#" xmlns:sodipodi="http://sodipodi.sourceforge.net/DTD/sodipodi-0.dtd" xmlns:svg="http://www.w3.org/2000/svg"
	 xmlns="http://www.w3.org/2000/svg" xmlns:xlink="http://www.w3.org/1999/xlink" x="0px" y="0px" viewBox="0 0 260.2 149.2"
	 style="enable-background:new 0 0 260.2 149.2;" xml:space="preserve">
<style type="text/css">
	.st0{fill:#1D1D1B;}
	.st1{enable-background:new    ;}
</style>
<sodipodi:namedview  bordercolor="#666666" borderopacity="1" fit-margin-bottom="0" fit-margin-left="0" fit-margin-right="0" fit-margin-top="0" gridtolerance="10" guidetolerance="10" id="namedview4" inkscape:current-layer="g12" inkscape:cx="48.55228" inkscape:cy="109.38369" inkscape:pageopacity="0" inkscape:pageshadow="2" inkscape:window-height="1028" inkscape:window-maximized="1" inkscape:window-width="1920" inkscape:window-x="0" inkscape:window-y="24" inkscape:zoom="1.907168" objecttolerance="10" pagecolor="#ffffff" showgrid="false">
	</sodipodi:namedview>
<g>
	<g>
		<path class="st0" d="M87.9,10.2c1.3-2.3,2.8-4.5,4.5-6.5V2.8H68.6v92.9h23.8v-7.3h-15V10.2H87.9z"/>
		<path class="st0" d="M94.2,97.5H66.8V1h27.4v3.3l-0.4,0.5c-1.4,1.7-2.8,3.6-4.3,6.2L89,12h-9.7v74.6h15V97.5z M70.4,93.9h20.1
			v-3.7h-15V8.3h11.3c0.8-1.4,1.6-2.6,2.5-3.7H70.4V93.9z"/>
	</g>
	<g>
		<path class="st0" d="M168.2,49.2c0,13.6-3.4,24.1-10.2,31.7c-6.8,7.6-16.2,11.4-28.3,11.4c-7.4,0-14-1.7-19.8-5.2
			c-5.7-3.4-10.2-8.5-13.3-15C93.6,65.5,92,57.9,92,49.2c0-13.6,3.3-24.1,10.1-31.6c6.8-7.5,16.1-11.3,28.2-11.3
			c11.5,0,20.8,3.8,27.7,11.5C164.7,25.5,168.2,36,168.2,49.2z M105.1,49.2c0,10.6,2.1,18.6,6.4,24.2c4.2,5.5,10.5,8.3,18.7,8.3
			c8.2,0,14.4-2.8,18.7-8.3c4.3-5.5,6.4-13.6,6.4-24.2c0-10.5-2.1-18.5-6.4-24.1c-4.3-5.4-10.6-8.2-18.9-8.2
			c-8.2,0-14.4,2.7-18.6,8.1C107.1,30.4,105.1,38.5,105.1,49.2z"/>
		<path class="st0" d="M129.7,94.1c-7.8,0-14.8-1.9-20.7-5.5c-6-3.6-10.7-8.9-14-15.8c-3.2-6.8-4.8-14.8-4.8-23.6
			c0-14,3.6-25,10.6-32.8c7.1-7.9,17-11.9,29.5-11.9c12.1,0,21.9,4.1,29,12.2c7.1,8,10.7,18.9,10.7,32.5c0,13.8-3.6,24.9-10.7,32.9
			C152.3,90,142.3,94.1,129.7,94.1z M130.3,8.2c-11.6,0-20.4,3.5-26.8,10.7C97,26,93.8,36,93.8,49.2c0,8.3,1.5,15.7,4.5,22
			c2.9,6.2,7.1,10.9,12.6,14.2c5.4,3.3,11.7,5,18.8,5c11.7,0,20.5-3.5,26.9-10.7c6.5-7.3,9.8-17.6,9.8-30.5
			c0-12.7-3.3-22.8-9.8-30.1C150.2,11.8,141.3,8.2,130.3,8.2z M130.2,83.6c-8.8,0-15.6-3-20.2-9c-4.6-6-6.8-14.3-6.8-25.3
			c0-11.4,2.2-19.7,6.7-25.3c4.5-5.8,11.2-8.8,20-8.8c8.8,0,15.7,3,20.3,8.9c4.6,5.9,6.8,14.1,6.8,25.2c0,11.2-2.2,19.5-6.8,25.4
			C145.7,80.5,138.9,83.6,130.2,83.6z M130,18.7c-7.7,0-13.3,2.4-17.2,7.4c-3.9,4.9-5.9,12.6-5.9,23c0,10.3,2,17.8,6,23.1
			c3.8,5,9.6,7.6,17.3,7.6c7.7,0,13.3-2.5,17.3-7.6c4-5.2,6-12.8,6-23.1c0-10.1-2-17.8-6-22.9C143.5,21.3,137.7,18.7,130,18.7z"/>
	</g>
	<g>
		<path class="st0" d="M167.8,2.8v0.4c1.8,2.2,3.5,4.5,5,6.9h10v78.2h-15v7.3h23.8V2.8H167.8z"/>
		<path class="st0" d="M193.4,97.4H166v-11h15V11.9h-9.2l-0.5-0.9c-1.2-2-2.8-4.2-4.8-6.7L166,3.8V1h27.4V97.4z M169.6,93.8h20.1
			V4.6h-18.5c1,1.3,1.8,2.5,2.5,3.6h10.8V90h-15V93.8z"/>
	</g>
</g>
<g>
	<g class="st1">
		<path class="st0" d="M26.9,129.4c0,7.6-4.8,12.5-12.1,12.5c-7.3,0-12.2-5-12.2-12.5c0-7.5,4.9-12.4,12.3-12.4
			C22.1,117,26.9,122,26.9,129.4z M9.1,129.4c0,4.8,2.1,7.6,5.7,7.6c3.6,0,5.7-2.8,5.7-7.7c0-4.7-2.1-7.5-5.7-7.5
			C11.2,121.9,9.1,124.7,9.1,129.4z"/>
		<path class="st0" d="M37.2,120.6c1.7-2.4,4.3-3.6,7.3-3.6c6.3,0,10.5,5,10.5,12.5c0,7.4-4.1,12.2-10.2,12.2c-3,0-5.5-1.1-7.2-3.5
			v11.3h-6.4v-31.9h6.1V120.6z M37.3,129.5c0,4.6,2.1,7.2,5.7,7.2c3.5,0,5.6-2.7,5.6-7.2c0-4.6-2.1-7.3-5.6-7.3
			C39.4,122.2,37.3,124.9,37.3,129.5z"/>
		<path class="st0" d="M70,141.9c-7.2,0-12-4.9-12-12.3c0-7.3,5-12.6,11.8-12.6c7.1,0,11.6,5.2,11.6,13.4v0.6H64.6
			c0.1,4.1,2.1,6.2,5.5,6.2c2.4,0,3.8-1,4.8-3.4h6.2C79.6,139,75.4,141.9,70,141.9z M69.8,121.7c-2.9,0-4.9,2-5.2,5.3h10.3
			C74.6,124.1,73.1,121.7,69.8,121.7z"/>
		<path class="st0" d="M100.7,141.2v-13.7c0-2.9-0.5-5.1-4-5.1c-3.9,0-5.1,2.8-5.1,6.2v12.6h-6.4v-23.5h6.2v3.3
			c1.9-2.5,4.5-3.9,7.8-3.9c5,0,8.2,3,8.2,8.4v15.7H100.7z"/>
		<path class="st0" d="M118.5,120.6c1.9-2.3,4.4-3.4,7.4-3.4c6.5,0,10.1,5.4,10.1,12.1c0,7.5-4.2,12.6-10.4,12.6
			c-3.1,0-5.7-1.1-7.4-3.6l0,3h-6.2v-32.5h6.4V120.6z M118.3,129.3c0,4.6,2.1,7.3,5.7,7.3c3.4,0,5.6-2.9,5.6-7.4
			c0-4.3-2.2-7.2-5.6-7.2C120.5,122.1,118.3,124.9,118.3,129.3z"/>
		<path class="st0" d="M155.3,141.2c-0.3-0.9-0.4-1.2-0.5-2.3c-2,2-4.8,3-7.6,3c-5.2,0-8.4-2.7-8.4-7.1c0-6.2,5.6-6.9,10.3-7.5
			c4.2-0.5,5.7-0.9,5.7-2.8c0-2.1-1.4-3.1-4.2-3.1c-3,0-4.2,0.9-4.6,3.6h-6.1c0.4-5.2,4.1-7.9,10.9-7.9c4.7,0,10.3,1.1,10.3,7.7
			v10.2c0,2.1,0,4.4,0.8,6.4H155.3z M150.3,131c-2.2,0.4-4.7,0.6-4.7,3.5c0,2,1.3,3.1,3.6,3.1c3.4,0,5.7-1.9,5.7-5.2v-2.6
			C153.3,130.6,151.9,130.7,150.3,131z"/>
		<path class="st0" d="M181.8,141.2v-13.7c0-2.9-0.5-5.1-4-5.1c-3.9,0-5.1,2.8-5.1,6.2v12.6h-6.4v-23.5h6.2v3.3
			c1.9-2.5,4.5-3.9,7.8-3.9c5,0,8.2,3,8.2,8.4v15.7H181.8z"/>
		<path class="st0" d="M207.2,126.4l9.9,14.8h-7.8l-6.5-10.4l-2.6,2.5v8h-6.3v-32.5h6.3v17.4l8.3-8.4h7.6L207.2,126.4z"/>
		<path class="st0" d="M227.2,141.2h-7.2v-32.5h7.2V141.2z"/>
		<path class="st0" d="M257.6,114.8h-9.8v26.4h-7.2v-26.4H231v-6.1h26.7V114.8z"/>
	</g>
</g>
</svg>
